# xmcd
#
# Track frame offsets:
# 150
# 14901
# 32481
# 47769
# 64246
# 83952
# 99246
# 114138
# 129967
# 144501
# 162753
#
# Disc length: 2383 seconds
#
# Revision: 1
# Processed by: cddbd v1.5.2PL0 Copyright (c) Steve Scherf et al.
# Submitted via: Axialis_AX_CDPlayer 2.6
#
DISCID=87094d0b
DTITLE=Montgomery Gentry - Tattoos and Scars
DYEAR=1900
DGENRE=
TTITLE0=Hillbilly Shoes
TTITLE1=Trying To Survive
TTITLE2=Lonely And Gone
TTITLE3=Self Made Man
TTITLE4=Daddy Won't Sell The Farm
TTITLE5=If A Broken Heart Could Kill
TTITLE6=I've Loved A Lot More Than I've Hurt
TTITLE7=Didn't Your Mama Tell Ya'
TTITLE8=Trouble Is
TTITLE9=Tattoos and Scars
TTITLE10=All Night Long
EXTD=
EXTT0=
EXTT1=
EXTT2=
EXTT3=
EXTT4=
EXTT5=
EXTT6=
EXTT7=
EXTT8=
EXTT9=
EXTT10=
PLAYORDER=
